<svg xmlns="http://www.w3.org/2000/svg" viewBox="0 0 512 512"><rect width="512" height="512" fill="#141312"/><g transform="translate(107.28 392.40) scale(0.188013)"><path transform="translate(0.0 0)" fill="#f5f1ec" d="M201 -65 326 -82 103 37 89 29 135 -221V-1244Q123 -1254 100.5 -1272.0Q78 -1290 47.0 -1314.5Q16 -1339 -23 -1369V-1392L417 -1488H435L427 -1301V-225Q427 -168 450.5 -124.5Q474 -81 516.0 -57.5Q558 -34 613 -34Q688 -34 741.5 -80.5Q795 -127 823.0 -227.0Q851 -327 851 -485Q851 -627 824.5 -713.5Q798 -800 742.5 -840.0Q687 -880 600 -880Q559 -880 521.0 -871.0Q483 -862 446.5 -842.0Q410 -822 373 -787L364 -814Q431 -886 484.5 -931.5Q538 -977 583.0 -1002.5Q628 -1028 669.5 -1038.5Q711 -1049 753 -1049Q879 -1049 969.0 -992.5Q1059 -936 1107.0 -830.0Q1155 -724 1155 -572Q1155 -428 1112.5 -316.5Q1070 -205 992.5 -129.5Q915 -54 810.0 -15.0Q705 24 580 24Q513 24 448.5 15.0Q384 6 322.5 -14.0Q261 -34 201 -65Z"/><path transform="translate(1180.0 0)" fill="#c8332b" d="M253 -317Q328 -317 376.5 -268.5Q425 -220 425 -148Q425 -77 376.5 -28.0Q328 21 253 21Q179 21 129.5 -28.0Q80 -77 80 -148Q80 -220 129.5 -268.5Q179 -317 253 -317Z"/></g></svg>